<svg xmlns="http://www.w3.org/2000/svg" style="display: none;">
  
    <symbol id="icon-play" viewBox="0 0 512 512">
      <path d="m394 256c0-4-2-8-6-10l-252-146c-2-1-4-2-7-2c-6 0-11 5-11 12c0 0 0 1 0 1l0 0l0 293l0 0c1 5 5 10 11 10c2 0 4-1 6-2l0 0l253-146l0 0c4-2 6-6 6-10z"/>
    </symbol>
  
    <symbol id="icon-pause" viewBox="0 0 512 512">
      <path d="m208 102c-1 0-1 0-2 0l0 0l-53 0c-6 0-11 5-11 11c0 0 0 0 0 0l0 0l0 286l0 0c0 0 0 0 0 0c0 6 5 11 11 11l55 0c6 0 11-5 11-11c0 0 0 0 0 0l0 0l0-286c0 0 0 0 0 0c0-6-5-11-11-11z m162 297l0-286c0 0 0 0 0 0c0-6-5-11-11-11c-1 0-1 0-2 0l0 0l-53 0c-6 0-11 5-11 11c0 0 0 0 0 0l0 0l0 286l0 0c0 0 0 0 0 0c0 6 5 11 11 11l55 0c6 0 11-5 11-11c0 0 0 0 0 0z"/>
    </symbol>
  
    <symbol id="icon-next" viewBox="0 0 512 512">
      <path d="m454 396l0-280c0 0 0 0 0 0c0 0 0 0 0 0l0-2l0 0c0-6-6-11-13-11c0 0 0 0 0 0l-23 0c-1 0-1-1-1-1c-8 0-13 6-13 13c0 1 0 2 0 2l0 119l-171-99c-2-1-4-2-6-2c-5 0-9 3-9 8l0 0l0 78l-146-84c-1-1-3-2-6-2c-5 0-8 3-9 8l0 0l0 226c0 4 4 8 9 8c3 0 5-1 7-2l145-84l0 78c0 4 4 8 9 8c2 0 5-1 6-2l171-99l0 120l0 0c0 0 0 0 0 1c0 7 6 13 13 13l25 0l0-1c7 0 13-5 13-13c0 0-1 0-1 0z"/>
    </symbol>
  
    <symbol id="icon-search" viewBox="0 0 512 512">
      <path d="m291 53c-91 0-164 74-164 164c0 31 8 60 23 85l-79 79l0 0c-8 8-14 20-14 33c0 25 21 45 46 45c12 0 24-5 32-14l0 1l82-82c22 11 47 17 74 17c90 0 164-73 164-164c0-90-74-164-164-164z m1 263c-57 0-103-45-103-102c0-56 46-102 103-102c56 0 102 46 102 102c0 57-46 102-102 102z"/>
    </symbol>
  
    <symbol id="icon-fullscreen" viewBox="0 0 512 512">
      <path d="m24 358l-24 144c0 3 1 6 2 8c0 0 0 0 0 0c2 1 5 2 8 2l144-25c3 0 6-2 6-5c1-3 1-6-2-8l-28-29l76-75c3-4 3-9 0-12l-52-52c-3-4-9-4-12 0l-76 75l-28-28c-2-2-5-3-8-2c-3 1-5 4-6 7z m464-204l24-144c0-3-1-6-2-8c0 0 0 0 0 0c-2-1-5-2-8-2l-144 25c-3 0-6 2-6 5c-1 3-1 6 2 8l28 29l-76 75c-3 4-3 9 0 12l52 52c3 4 9 4 12 0l76-75l28 28c2 2 5 3 8 2c3-1 5-4 6-7z m-130 334l144 24c3 0 6-1 8-2c0 0 0 0 0 0c1-2 2-5 2-8l-25-144c0-3-2-6-5-6c-3-1-6-1-8 2l-29 28l-75-76c-4-3-9-3-12 0l-52 52c-4 3-4 9 0 12l75 76l-28 28c-2 2-3 5-2 8c1 3 4 5 7 6z m-204-464l-144-24c-3 0-6 1-8 2c0 0 0 0 0 0c-1 2-2 5-2 8l25 144c0 3 2 6 5 6c3 1 6 1 8-2l29-28l75 76c4 3 9 3 12 0l52-52c4-3 4-9 0-12l-75-76l28-28c2-2 3-5 2-8c-1-3-4-5-7-6z"/>
    </symbol>
  
</svg>
